<?xml version="1.0" encoding="utf-8"?>
<!-- Generator: Adobe Illustrator 21.1.0, SVG Export Plug-In . SVG Version: 6.00 Build 0)  -->
<svg version="1.1" id="レイヤー_1" xmlns="http://www.w3.org/2000/svg" xmlns:xlink="http://www.w3.org/1999/xlink" width="540" height="285" x="0px"
	 y="0px" viewBox="0 0 18.8 9.1" style="enable-background:new 0 0 18.8 9.1;" xml:space="preserve">
<style type="text/css">
	.st0{fill:#E60012;}
</style>
<path class="st0" d="M17.5,6.6c0.4-0.4,0.7-0.9,1-1.4c0.2-0.5,0.4-1,0.4-1.6c0-0.4-0.1-0.7-0.2-1.1c-0.1-0.4-0.3-0.7-0.6-1
	c-0.4-0.5-0.8-0.8-1.3-1.1C16.2,0.1,15.7,0,15.1,0c-0.4,0-0.8,0.1-1.3,0.2c-0.6,0.2-1.2,0.6-1.7,1.1c-0.5,0.5-0.9,1.2-1.2,2
	c-0.4,1.1-1.4,3.5-1.4,3.6H9.4c0-0.1-1.1-2.5-1.4-3.6c-0.2-0.6-0.4-1-0.7-1.5c-0.4-0.6-1-1.1-1.6-1.4C5,0.1,4.4,0,3.7,0
	C3,0,2.2,0.2,1.6,0.6C1.3,0.8,1,1.1,0.8,1.4c-0.2,0.3-0.4,0.7-0.6,1C0.1,2.8,0,3.2,0,3.5c0,0.4,0.1,0.7,0.2,1.1
	c0.2,0.6,0.5,1.2,1,1.7c0.7,0.8,1.6,1.5,2.7,2c1.1,0.5,2.4,0.8,3.9,0.8c0.8,0,1.7,0,1.7,0c0,0,0.9,0,1.7,0c1.1,0,2.1-0.2,3-0.5
	C15.6,8.2,16.7,7.4,17.5,6.6z M13,2.8c0.3-0.4,0.6-0.7,1-0.9c0.4-0.2,0.7-0.3,1.1-0.3c0.4,0,0.9,0.1,1.2,0.4
	c0.2,0.1,0.3,0.3,0.5,0.4C16.9,2.6,17,2.8,17.1,3c0.1,0.2,0.1,0.3,0.1,0.5c0,0.2,0,0.4-0.1,0.6c-0.1,0.4-0.3,0.8-0.6,1.1
	c-0.5,0.6-1.2,1.1-2.1,1.5c-0.9,0.4-2,0.6-3.2,0.6c-0.1,0-0.1,0-0.2,0c0.4-0.7,1-1.9,1.5-3.6C12.6,3.5,12.8,3.1,13,2.8z M1.9,4.4
	C1.7,4.1,1.7,3.8,1.7,3.5c0-0.2,0-0.4,0.1-0.5l0,0c0.1-0.2,0.2-0.4,0.3-0.6C2.3,2.2,2.5,2,2.8,1.9c0.3-0.1,0.6-0.2,0.9-0.2
	c0.2,0,0.5,0,0.7,0.1c0.4,0.1,0.7,0.3,1,0.7c0.3,0.3,0.6,0.8,0.8,1.4c0.5,1.7,1.1,2.8,1.5,3.6c-0.1,0-0.1,0-0.2,0
	C6.7,7.4,5.9,7.3,5.2,7c-1.1-0.4-2-1-2.6-1.6C2.3,5.1,2,4.8,1.9,4.4z"/>
</svg>
