<?xml version="1.0" encoding="utf-8"?>
<!-- Generator: Adobe Illustrator 21.1.0, SVG Export Plug-In . SVG Version: 6.00 Build 0)  -->
<svg version="1.1" id="レイヤー_1" xmlns="http://www.w3.org/2000/svg" xmlns:xlink="http://www.w3.org/1999/xlink" width="640" height="80" x="0px"
	 y="0px" viewBox="0 0 222.4 25.8" style="enable-background:new 0 0 222.4 25.8;" xml:space="preserve">
<style type="text/css" amp-custom>
	.st0{fill:#FFFFFF;}
</style>
<g>
	<path class="st0" d="M10,14.8l-5.1-1.3c-1.8-0.4-3-1.2-3.8-2.3C0.4,10.1,0,8.5,0,6.6C0,5.1,0.1,4,0.4,3.1c0.3-0.9,0.8-1.5,1.5-2
		c0.7-0.4,1.5-0.7,2.4-0.9C5.3,0.1,6.6,0,8.1,0c2.9,0,5.4,0.3,7.4,0.7l-0.2,2.3c-2.3-0.1-4.7-0.2-7-0.2c-1.1,0-1.8,0-2.3,0.1
		c-0.5,0-1,0.2-1.5,0.4C3.9,3.6,3.6,4,3.4,4.5C3.3,5,3.2,5.7,3.2,6.7c0,1.3,0.2,2.3,0.7,2.8c0.5,0.6,1.3,1,2.4,1.3l5,1.3
		c1.8,0.5,3.1,1.2,3.9,2.3c0.7,1.1,1.1,2.7,1.1,4.6c0,2.7-0.6,4.5-1.9,5.4c-1.2,0.9-3.4,1.3-6.5,1.3c-2.6,0-5.2-0.2-7.7-0.7l0.2-2.3
		c4,0.1,6.6,0.2,7.6,0.2c2,0,3.3-0.3,4-0.8s1-1.6,1-3.2c0-1.4-0.2-2.3-0.7-2.9C12,15.5,11.2,15.1,10,14.8z"/>
	<path class="st0" d="M38.3,3.3h-8v22h-3.2v-22h-8V0.5h19.2V3.3z"/>
	<path class="st0" d="M43.5,2.8C45,0.9,47.5,0,51.2,0s6.2,0.9,7.6,2.8c1.4,1.9,2.2,5.2,2.2,10.1s-0.7,8.2-2.2,10.1
		c-1.4,1.9-4,2.8-7.6,2.8S45,24.8,43.5,23c-1.5-1.9-2.2-5.2-2.2-10.1S42.1,4.7,43.5,2.8z M56.2,5c-0.9-1.5-2.6-2.2-5.1-2.2
		c-2.4,0-4.1,0.7-5.1,2.2c-0.9,1.5-1.4,4.1-1.4,7.9s0.5,6.4,1.4,7.9c0.9,1.5,2.6,2.2,5.1,2.2c2.4,0,4.1-0.7,5.1-2.2
		c0.9-1.5,1.4-4.1,1.4-7.9S57.2,6.5,56.2,5z"/>
	<path class="st0" d="M82.1,22.5l0.3,2.4c-2,0.6-4.4,0.8-7.3,0.8c-3.6,0-6.1-1-7.6-2.9c-1.5-1.9-2.2-5.2-2.2-10
		c0-4.7,0.7-8.1,2.2-10C69,1,71.6,0,75.1,0c2.6,0,4.8,0.2,6.8,0.7l-0.3,2.4c-2.2-0.2-4.3-0.3-6.4-0.3c-2.4,0-4.1,0.7-5,2.2
		c-0.9,1.5-1.4,4.1-1.4,7.9s0.5,6.4,1.4,7.9c0.9,1.5,2.6,2.2,5,2.2C77.9,22.9,80.2,22.8,82.1,22.5z"/>
	<path class="st0" d="M92.8,13.6h-3.1c0.1,0.9,0.2,1.8,0.2,2.6v9h-3.1V0.5H90v7.8c0,1-0.1,1.9-0.2,2.8h3l7.6-10.6h3.5l-7.2,10.3
		c-0.3,0.4-0.7,1-1.4,1.6v0.1c0.7,0.6,1.2,1.2,1.5,1.7l7.6,11.2h-3.6L92.8,13.6z"/>
	<path class="st0" d="M162.3,0.5V24c0,0.8-0.4,1.3-1.2,1.3h-3.1c-0.6,0-1.1-0.3-1.4-1l-8.4-17.6c-0.8-1.8-1.3-2.9-1.4-3.3h-0.6
		c0.1,1,0.1,2.1,0.1,3.3v18.6h-3.2V1.7c0-0.8,0.4-1.3,1.3-1.3h3c0.6,0,1.1,0.3,1.4,1l8.1,17.2c0.6,1.2,1.2,2.4,1.7,3.6h0.6
		c-0.1-1.3-0.1-2.6-0.1-3.8v-18H162.3z"/>
	<path class="st0" d="M169.8,2.8c1.5-1.9,4-2.8,7.7-2.8c3.6,0,6.2,0.9,7.6,2.8c1.4,1.9,2.2,5.2,2.2,10.1s-0.7,8.2-2.2,10.1
		c-1.4,1.9-4,2.8-7.6,2.8c-3.6,0-6.2-0.9-7.7-2.8c-1.5-1.9-2.2-5.2-2.2-10.1S168.3,4.7,169.8,2.8z M182.5,5
		c-0.9-1.5-2.6-2.2-5.1-2.2c-2.4,0-4.1,0.7-5.1,2.2c-0.9,1.5-1.4,4.1-1.4,7.9s0.5,6.4,1.4,7.9c0.9,1.5,2.6,2.2,5.1,2.2
		c2.4,0,4.1-0.7,5.1-2.2c0.9-1.5,1.4-4.1,1.4-7.9S183.4,6.5,182.5,5z"/>
	<path class="st0" d="M222.4,0.5l-5,23.9c-0.2,0.6-0.6,0.9-1.3,0.9h-3.6c-0.7,0-1.1-0.3-1.2-1l-3.9-18.7c-0.1-0.6-0.3-1.6-0.6-2.8
		h-0.8l-0.5,2.8l-3.9,18.7c-0.2,0.6-0.6,1-1.3,1h-3.6c-0.3,0-0.6-0.1-0.8-0.3c-0.2-0.2-0.4-0.4-0.4-0.7l-5-23.9h3.3l3.9,19.4
		c0,0.2,0.2,1.2,0.5,3.1h0.8c0.2-1.1,0.4-2.1,0.6-3.1l3.9-18.3c0.1-0.7,0.5-1,1.2-1h3.5c0.6,0,1.1,0.3,1.2,1l3.9,18.3
		c0.2,1.2,0.4,2.2,0.5,3.1h0.9c0.2-1.4,0.4-2.4,0.5-3l3.9-19.4H222.4z"/>
</g>
<path class="st0" d="M129.9,14.9c0.4-0.4,0.7-0.9,1-1.4c0.2-0.5,0.4-1,0.4-1.6c0-0.4-0.1-0.7-0.2-1.1c-0.1-0.4-0.3-0.7-0.6-1
	c-0.4-0.5-0.8-0.8-1.3-1.1c-0.5-0.2-1.1-0.4-1.7-0.4c-0.4,0-0.8,0.1-1.3,0.2c-0.6,0.2-1.2,0.6-1.7,1.1c-0.5,0.5-0.9,1.2-1.2,2
	c-0.4,1.1-1.4,3.5-1.4,3.6h-0.1c0-0.1-1.1-2.5-1.4-3.6c-0.2-0.6-0.4-1-0.7-1.5c-0.4-0.6-1-1.1-1.6-1.4c-0.6-0.3-1.2-0.5-1.9-0.5
	c-0.8,0-1.5,0.2-2.2,0.6c-0.3,0.2-0.6,0.5-0.8,0.8c-0.2,0.3-0.4,0.7-0.6,1c-0.1,0.3-0.2,0.7-0.2,1.1c0,0.4,0.1,0.7,0.2,1.1
	c0.2,0.6,0.5,1.2,1,1.7c0.7,0.8,1.6,1.5,2.7,2c1.1,0.5,2.4,0.8,3.9,0.8c0.8,0,1.7,0,1.7,0c0,0,0.9,0,1.7,0c1.1,0,2.1-0.2,3-0.5
	C127.9,16.5,129.1,15.8,129.9,14.9z M125.3,11.2c0.3-0.4,0.6-0.7,1-0.9c0.4-0.2,0.7-0.3,1.1-0.3c0.4,0,0.9,0.1,1.2,0.4
	c0.2,0.1,0.3,0.3,0.5,0.4c0.1,0.2,0.2,0.3,0.3,0.6c0.1,0.2,0.1,0.3,0.1,0.5c0,0.2,0,0.4-0.1,0.6c-0.1,0.4-0.3,0.8-0.6,1.1
	c-0.5,0.6-1.2,1.1-2.1,1.5c-0.9,0.4-2,0.6-3.2,0.6c-0.1,0-0.1,0-0.2,0c0.4-0.7,1-1.9,1.5-3.6C125,11.8,125.2,11.5,125.3,11.2z
	 M114.2,12.8c-0.1-0.3-0.2-0.6-0.2-0.9c0-0.2,0-0.4,0.1-0.5l0,0c0.1-0.2,0.2-0.4,0.3-0.6c0.2-0.2,0.4-0.4,0.7-0.6
	c0.3-0.1,0.6-0.2,0.9-0.2c0.2,0,0.5,0,0.7,0.1c0.4,0.1,0.7,0.3,1,0.7c0.3,0.3,0.6,0.8,0.8,1.4c0.5,1.7,1.1,2.8,1.5,3.6
	c-0.1,0-0.1,0-0.2,0c-0.9,0-1.8-0.1-2.5-0.4c-1.1-0.4-2-1-2.6-1.6C114.6,13.4,114.4,13.1,114.2,12.8z"/>
</svg>
