<?xml version="1.0" encoding="utf-8"?>
<!-- Generator: Adobe Illustrator 23.0.1, SVG Export Plug-In . SVG Version: 6.00 Build 0)  -->
<svg version="1.1" id="レイヤー_1" xmlns="http://www.w3.org/2000/svg" xmlns:xlink="http://www.w3.org/1999/xlink" x="0px"
	 y="0px" viewBox="0 0 201.8 92.9" style="enable-background:new 0 0 201.8 92.9;" xml:space="preserve">
<style type="text/css">
	.st0{fill:#FF001F;}
</style>
<g>
	<path d="M0.4,86.7c7.2,0.4,12.1,0.6,14.7,0.6c0.6,0,1.1-0.2,1.4-0.5c0.4-0.4,0.5-0.8,0.5-1.4v-3.6H7.9c-2.8,0-4.8-0.6-6-1.9
		c-1.3-1.3-1.9-3.3-1.9-6v-1.2c0-2.8,0.6-4.8,1.9-6c1.3-1.3,3.3-1.9,6-1.9h13.9v5.5H9.5c-1.6,0-2.4,0.8-2.4,2.4v0.8
		c0,1.6,0.8,2.4,2.4,2.4h7.1c2.6,0,4.5,0.6,5.7,1.8c1.2,1.2,1.8,3.1,1.8,5.7v2c0,2.6-0.6,4.5-1.8,5.7c-1.2,1.2-3.1,1.8-5.7,1.8
		c-1.3,0-2.8,0-4.3-0.1l-3.6-0.2c-2.7-0.1-5.5-0.3-8.3-0.6V86.7z"/>
	<path d="M41.9,92.5c-2.6,0.3-5.1,0.4-7.5,0.4c-1.8,0-3.2-0.5-4.3-1.6c-1.1-1.1-1.6-2.5-1.6-4.3V76.9h-2.4v-5.3h2.4l0.8-4.7h6.1v4.7
		h4.9v5.3h-4.9v9.1c0,0.4,0.1,0.7,0.4,1c0.3,0.3,0.6,0.4,1,0.4h5.1V92.5z"/>
	<path d="M65.9,86.5c0,2-0.6,3.5-1.7,4.6c-1.1,1.1-2.7,1.7-4.6,1.7h-9.1c-2,0-3.5-0.6-4.6-1.7c-1.1-1.1-1.7-2.7-1.7-4.6v-9.1
		c0-2,0.6-3.5,1.7-4.6c1.1-1.1,2.7-1.7,4.6-1.7h9.1c2,0,3.5,0.6,4.6,1.7c1.1,1.1,1.7,2.7,1.7,4.6V86.5z M59,78
		c0-1.1-0.5-1.6-1.6-1.6h-4.7c-1.1,0-1.6,0.5-1.6,1.6v7.9c0,1.1,0.5,1.6,1.6,1.6h4.7c1.1,0,1.6-0.5,1.6-1.6V78z"/>
	<path d="M88.1,92.1c-4.9,0.5-9.3,0.8-13,0.8c-1.8,0-3.2-0.5-4.3-1.6c-1.1-1.1-1.6-2.5-1.6-4.3v-9.1c0-2,0.6-3.5,1.7-4.6
		c1.1-1.1,2.7-1.7,4.6-1.7h12.6v5.3H77.6c-1.1,0-1.6,0.5-1.6,1.6v7.7c0,0.4,0.1,0.7,0.4,1c0.3,0.3,0.6,0.4,1,0.4
		c2.4,0,5.9-0.2,10.7-0.6V92.1z"/>
	<path d="M98.1,84.2v8.3h-6.9V64.8h6.9v14h3.2l4.3-7.3h7.3L107,81.6l5.9,10.9h-7.3l-4.5-8.3H98.1z"/>
	<path d="M126.6,76.9c-1.4,0-3,0.3-4.7,0.8v14.8h-6.9V71.5h6.1l0.4,2c1.2-0.8,2.5-1.4,3.8-1.8c1.3-0.4,2.4-0.6,3.3-0.6h1.8
		c1.8,0,3.2,0.5,4.3,1.6c1.1,1.1,1.6,2.5,1.6,4.3v15.4h-6.9V78.2c0-0.4-0.1-0.7-0.4-1c-0.3-0.3-0.6-0.4-1-0.4H126.6z"/>
	<path d="M161.1,86.5c0,2-0.6,3.5-1.7,4.6s-2.7,1.7-4.6,1.7h-9.1c-2,0-3.5-0.6-4.6-1.7s-1.7-2.7-1.7-4.6v-9.1c0-2,0.6-3.5,1.7-4.6
		s2.7-1.7,4.6-1.7h9.1c2,0,3.5,0.6,4.6,1.7s1.7,2.7,1.7,4.6V86.5z M154.2,78c0-1.1-0.5-1.6-1.6-1.6h-4.7c-1.1,0-1.6,0.5-1.6,1.6v7.9
		c0,1.1,0.5,1.6,1.6,1.6h4.7c1.1,0,1.6-0.5,1.6-1.6V78z"/>
	<path d="M185.2,64.8l4.7,17.8l4.1-17.8h7.7l-7.5,27.6h-7.5L182,75.3l-4.7,17.2h-7.5l-7.5-27.6h7.7l4.1,17.8l4.7-17.8H185.2z"/>
</g>
<g>
	<g>
		<path class="st0" d="M94.6,56.6c-8.4,0-15.2-6.8-15.2-15.2V27.6c0-2.8,1.6-5.3,4.1-6.4l0.3-0.1H84v27.6c0,2.6,1.1,3.9,3.4,3.9h7.1
			c2.3,0,3.4-1.3,3.4-3.9v-21c0-2.8,1.6-5.3,4.1-6.4l0.3-0.1h0.2v27.6c0,2.6,1.1,3.9,3.4,3.9h7.1c2.3,0,3.4-1.3,3.4-3.9v-21
			c0-2.8,1.6-5.3,4.1-6.4L121,21h0.2v20.5c0,8.4-6.8,15.2-15.2,15.2h0c-1.4,0-2.5-0.2-3.5-0.6c-1.6-0.6-3.3-0.4-4.9,0.1
			C96.7,56.5,95.7,56.6,94.6,56.6L94.6,56.6z"/>
	</g>
	<path class="st0" d="M120.1,16.1c1-1.1,1.8-2.3,2.3-3.5c0.6-1.2,0.9-2.6,0.9-3.9c0-0.9-0.1-1.8-0.4-2.6c-0.3-1-0.8-1.8-1.4-2.6
		c-0.9-1.1-2-2-3.3-2.6C117,0.3,115.6,0,114.2,0c-1,0-2.1,0.2-3.1,0.5c-1.5,0.5-3,1.4-4.2,2.7c-1.2,1.3-2.2,3-2.9,5
		c-0.9,2.6-3.4,8.6-3.5,8.8h-0.2c-0.1-0.1-2.6-6.1-3.5-8.8c-0.4-1.4-1-2.6-1.7-3.6c-1.1-1.5-2.4-2.7-3.9-3.5C89.6,0.4,88,0,86.4,0
		c-1.9,0-3.7,0.5-5.3,1.6c-0.8,0.5-1.5,1.1-2.1,1.9C78.5,4.2,78,5.1,77.7,6c-0.3,0.9-0.4,1.7-0.4,2.6c0,0.9,0.1,1.8,0.4,2.6
		c0.5,1.5,1.3,2.9,2.3,4.2c1.6,2,3.9,3.6,6.6,4.8c2.7,1.2,5.9,1.9,9.5,1.9c2,0,4.2,0,4.3,0c0.1,0,2.3,0,4.3,0c2.7,0,5.2-0.4,7.4-1.2
		C115.4,20,118.1,18.2,120.1,16.1z M109.1,7c0.7-1,1.5-1.7,2.4-2.2c0.9-0.5,1.8-0.7,2.7-0.7c1.1,0,2.1,0.3,3,0.9
		c0.4,0.3,0.8,0.6,1.1,1c0.3,0.4,0.6,0.8,0.7,1.4c0.1,0.4,0.2,0.8,0.2,1.3c0,0.5-0.1,0.9-0.2,1.4c-0.3,0.9-0.8,1.9-1.6,2.8
		c-1.2,1.4-2.9,2.7-5.1,3.7c-2.2,1-4.8,1.6-7.8,1.6c-0.2,0-0.3,0-0.5,0c1.1-1.8,2.4-4.6,3.7-8.7C108.2,8.5,108.6,7.6,109.1,7z
		 M81.9,10.9c-0.4-0.8-0.5-1.5-0.5-2.2c0-0.5,0.1-0.9,0.2-1.3l0,0c0.2-0.5,0.4-1,0.7-1.4c0.5-0.6,1.1-1.1,1.8-1.4
		c0.7-0.3,1.5-0.5,2.3-0.5c0.6,0,1.2,0.1,1.8,0.3C89.2,4.7,90,5.2,90.8,6c0.8,0.8,1.5,1.9,2,3.4c1.3,4.1,2.7,6.9,3.7,8.7
		c-0.2,0-0.3,0-0.5,0c-2.3,0-4.3-0.4-6.2-1c-2.7-0.9-4.9-2.3-6.4-3.9C82.8,12.5,82.3,11.7,81.9,10.9z"/>
</g>
</svg>
